<?xml version="1.0" standalone="no"?>
<!DOCTYPE svg PUBLIC "-//W3C//DTD SVG 20010904//EN"
 "http://www.w3.org/TR/2001/REC-SVG-20010904/DTD/svg10.dtd">
<svg version="1.0" xmlns="http://www.w3.org/2000/svg"
 width="600.000000pt" height="600.000000pt" viewBox="0 0 600.000000 600.000000"
 preserveAspectRatio="xMidYMid meet">
<metadata>
Created by potrace 1.11, written by Peter Selinger 2001-2013
</metadata>
<g transform="translate(0.000000,600.000000) scale(0.100000,-0.100000)"
fill="#000000" stroke="none">
<path d="M2906 5798 c-3 -7 -20 -56 -40 -108 -143 -391 -271 -743 -285 -785
-20 -57 -365 -1002 -416 -1140 -19 -50 -54 -149 -80 -220 -25 -72 -59 -164
-75 -205 -16 -41 -56 -151 -90 -245 -34 -93 -141 -386 -237 -650 -97 -264
-184 -505 -195 -535 -10 -30 -23 -64 -28 -75 -4 -11 -100 -271 -211 -578 -132
-365 -199 -561 -192 -565 15 -10 3730 -9 3739 0 4 5 -16 72 -45 150 -29 79
-65 179 -81 223 -16 44 -44 123 -63 175 -20 52 -63 172 -96 265 -34 94 -68
186 -76 205 -7 19 -32 87 -55 150 -23 63 -50 140 -61 170 -73 199 -187 511
-219 600 -97 269 -352 967 -360 985 -5 11 -83 225 -174 475 -90 250 -249 685
-351 965 -103 281 -191 521 -195 535 -50 146 -79 215 -94 218 -9 2 -18 -2 -20
-10z"/>
</g>
</svg>
